HIERARCHY
ROOT hip
{
	OFFSET 0.000000 0.000000 0.000000
	CHANNELS 6 Xposition Yposition Zposition Xrotation Zrotation Yrotation 
	JOINT abdomen
	{
		OFFSET 0.000000 3.422050 0.000000
		CHANNELS 3 Xrotation Zrotation Yrotation 
		JOINT chest
		{
			OFFSET 0.000000 8.486693 -0.684411
			CHANNELS 3 Xrotation Zrotation Yrotation 
			JOINT neck
			{
				OFFSET 0.000000 10.266162 -0.273764
				CHANNELS 3 Xrotation Zrotation Yrotation 
				JOINT head
				{
					OFFSET 0.000000 3.148285 0.000000
					CHANNELS 3 Xrotation Zrotation Yrotation 
					End Site
					{
						OFFSET 0.000000 3.148289 0.000000
					}
				}
			}
			JOINT lCollar
			{
				OFFSET 3.422053 6.707223 -0.821293
				CHANNELS 3 Yrotation Zrotation Xrotation 
				JOINT lShldr
				{
					OFFSET 3.285171 0.000000 0.000000
					CHANNELS 3 Zrotation Yrotation Xrotation 
					JOINT lForeArm
					{
						OFFSET 10.129278 0.000000 0.000000
						CHANNELS 3 Yrotation Zrotation Xrotation 
						JOINT lHand
						{
							OFFSET 8.486692 0.000000 0.000000
							CHANNELS 3 Zrotation Yrotation Xrotation 
							End Site
							{
								OFFSET 4.106464 0.000000 0.000000
							}
						}
					}
				}
			}
			JOINT rCollar
			{
				OFFSET -3.558935 6.707223 -0.821293
				CHANNELS 3 Yrotation Zrotation Xrotation 
				JOINT rShldr
				{
					OFFSET -3.148289 0.000000 0.000000
					CHANNELS 3 Zrotation Yrotation Xrotation 
					JOINT rForeArm
					{
						OFFSET -10.266159 0.000000 0.000000
						CHANNELS 3 Yrotation Zrotation Xrotation 
						JOINT rHand
						{
							OFFSET -8.349810 0.000000 0.000000
							CHANNELS 3 Zrotation Yrotation Xrotation 
							End Site
							{
								OFFSET -4.106464 0.000000 0.000000
							}
						}
					}
				}
			}
		}
	}
	JOINT lThigh
	{
		OFFSET 5.338403 -1.642589 1.368821
		CHANNELS 3 Xrotation Zrotation Yrotation 
		JOINT lShin
		{
			OFFSET -2.053232 -20.121670 0.000000
			CHANNELS 3 Xrotation Zrotation Yrotation 
			JOINT lFoot
			{
				OFFSET 0.000000 -19.300380 -1.231939
				CHANNELS 3 Xrotation Yrotation Zrotation 
				End Site
				{
					OFFSET 0.000000 -2.463878 4.653993
				}
			}
		}
	}
	JOINT rThigh
	{
		OFFSET -5.338403 -1.642589 1.368821
		CHANNELS 3 Xrotation Zrotation Yrotation 
		JOINT rShin
		{
			OFFSET 2.053232 -20.121670 0.000000
			CHANNELS 3 Xrotation Zrotation Yrotation 
			JOINT rFoot
			{
				OFFSET 0.000000 -19.300380 -1.231939
				CHANNELS 3 Xrotation Yrotation Zrotation 
				End Site
				{
					OFFSET 0.000000 -2.463878 4.653993
				}
			}
		}
	}
}
MOTION
Frames: 10
Frame Time: 0.033264
28.304211 5.972748 0.000000 93.539154 -0.016851 -0.255340 -16.609049 -2.198715 0.252049 -25.431337 -0.002798 -0.449295 -5.804391 0.223678 -21.518391 0.057630 20.686680 -1.676509 -0.001347 -8.002656 -0.194655 -38.597115 -58.467800 -3.713813 -73.693924 8.907644 24.311245 14.564294 0.977739 24.867136 -0.002182 7.999157 -0.194408 38.588985 58.463844 -3.719616 81.531433 -26.215797 47.072311 17.559326 -7.726072 -1.122315 -5.126451 4.947763 0.035899 87.821709 -9.841134 -4.459896 7.047892 15.352027 14.054902 -5.124784 -5.472084 -0.163216 82.134560 9.065112 -11.243872 19.888342 -5.651645 -10.278736 
28.304211 5.972748 0.000000 93.539154 -0.016851 -0.255340 -16.609047 -2.198715 0.252049 -25.431334 -0.002798 -0.449295 -5.694387 0.239600 -21.109108 0.061612 20.293409 -1.647620 -0.001347 -8.002656 -0.194655 -38.597115 -58.467793 -3.713815 -73.772408 9.262222 24.710442 14.153646 1.047414 24.392982 -0.002182 7.999156 -0.194408 38.588985 58.463844 -3.719616 81.531433 -26.215797 47.072311 17.559326 -7.726072 -1.122315 -5.126451 4.947763 0.035899 88.091675 -10.112438 -4.441611 7.047892 15.352027 14.054902 -5.124784 -5.472084 -0.163216 82.156418 9.143478 -11.247735 19.888340 -5.651645 -10.278736 
28.304211 5.972748 0.000000 93.539154 -0.016851 -0.255340 -16.609047 -2.198715 0.252049 -25.431334 -0.002798 -0.449295 -5.584215 0.254744 -20.699581 0.065376 19.899965 -1.618820 -0.001347 -8.002656 -0.194655 -38.597115 -58.467793 -3.713815 -73.853546 9.616549 25.110874 13.741938 1.113763 23.917765 -0.002182 7.999156 -0.194408 38.588985 58.463844 -3.719616 81.531433 -26.215797 47.072311 17.559326 -7.726072 -1.122315 -5.126451 4.947763 0.035899 88.361900 -10.383924 -4.424605 7.047892 15.352027 14.054902 -5.124784 -5.472084 -0.163216 82.178238 9.221846 -11.251565 19.888340 -5.651645 -10.278736 
28.304211 5.972748 0.000000 93.539154 -0.016851 -0.255340 -16.609049 -2.198715 0.252049 -25.431334 -0.002798 -0.449295 -5.473877 0.269106 -20.289812 0.068921 19.506336 -1.590104 -0.001347 -8.002656 -0.194655 -38.597115 -58.467793 -3.713815 -73.937363 9.970587 25.512573 13.329227 1.176762 23.441549 -0.002182 7.999156 -0.194408 38.588985 58.463844 -3.719616 81.531425 -26.215796 47.072311 17.559326 -7.726072 -1.122315 -5.126451 4.947763 0.035899 88.632370 -10.655580 -4.408881 7.047892 15.352027 14.054902 -5.124784 -5.472084 -0.163216 82.200081 9.300220 -11.255368 19.888340 -5.651645 -10.278736 
28.304211 5.972748 0.000000 93.539154 -0.016851 -0.255340 -16.609047 -2.198715 0.252049 -25.431334 -0.002798 -0.449295 -5.363389 0.282686 -19.879820 0.072251 19.112543 -1.561472 -0.001347 -8.002656 -0.194655 -38.597115 -58.467793 -3.713815 -74.023849 10.324309 25.915543 12.915557 1.236389 22.964369 -0.002182 7.999156 -0.194408 38.588985 58.463844 -3.719616 81.531433 -26.215797 47.072311 17.559326 -7.726072 -1.122315 -5.126451 4.947763 0.035899 88.903084 -10.927388 -4.394445 7.047892 15.352027 14.054902 -5.124784 -5.472084 -0.163216 82.221909 9.378599 -11.259142 19.888340 -5.651645 -10.278736 
28.304211 5.972748 0.000000 93.539154 -0.016851 -0.255340 -16.609047 -2.198715 0.252049 -25.431334 -0.002798 -0.449295 -5.252755 0.295480 -19.469616 0.075367 18.718594 -1.532920 -0.001347 -8.002656 -0.194655 -38.597115 -58.467793 -3.713815 -74.113022 10.677670 26.319801 12.500978 1.292623 22.486277 -0.002182 7.999156 -0.194408 38.588985 58.463844 -3.719616 81.531433 -26.215797 47.072311 17.559326 -7.726072 -1.122315 -5.126451 4.947763 0.035899 89.174080 -11.199345 -4.381303 7.047892 15.352027 14.054902 -5.124784 -5.472084 -0.163216 82.243736 9.456982 -11.262884 19.888340 -5.651645 -10.278736 
28.304211 5.972748 0.000000 93.539154 -0.016851 -0.255340 -16.609047 -2.198715 0.252049 -25.431334 -0.002798 -0.449295 -5.141985 0.307487 -19.059212 0.078269 18.324495 -1.504446 -0.001347 -8.002656 -0.194655 -38.597115 -58.467793 -3.713815 -74.204926 11.030644 26.725384 12.085550 1.345443 22.007339 -0.002182 7.999156 -0.194408 38.588985 58.463844 -3.719616 81.531433 -26.215797 47.072311 17.559326 -7.726072 -1.122315 -5.126451 4.947763 0.035899 89.445313 -11.471429 -4.369454 7.047892 15.352027 14.054902 -5.124784 -5.472084 -0.163216 82.265564 9.535370 -11.266599 19.888340 -5.651645 -10.278736 
28.304211 5.972748 0.000000 93.539154 -0.016851 -0.255340 -16.609047 -2.198715 0.252049 -25.431334 -0.002798 -0.449295 -5.031088 0.318704 -18.648621 0.080960 17.930264 -1.476047 -0.001347 -8.002656 -0.194655 -38.597115 -58.467793 -3.713815 -74.299530 11.383192 27.132286 11.669316 1.394830 21.527592 -0.002182 7.999156 -0.194408 38.588985 58.463844 -3.719616 81.531433 -26.215801 47.072311 17.559326 -7.726072 -1.122315 -5.126451 4.947763 0.035899 89.716843 -11.743637 -4.358910 7.047892 15.352027 14.054902 -5.124784 -5.472084 -0.163216 82.287399 9.613764 -11.270283 19.888340 -5.651645 -10.278736 
28.304211 5.972748 0.000000 93.539154 -0.016851 -0.255340 -16.609049 -2.198715 0.252049 -25.431334 -0.002798 -0.449295 -4.920072 0.329130 -18.237854 0.083441 17.535904 -1.447721 -0.001347 -8.002656 -0.194655 -38.597115 -58.467793 -3.713815 -74.396866 11.735271 27.540531 11.252335 1.440765 21.047102 -0.002182 7.999156 -0.194408 38.588985 58.463844 -3.719616 81.531433 -26.215797 47.072311 17.559326 -7.726072 -1.122315 -5.126451 4.947763 0.035899 89.988655 -12.015950 -4.349671 7.047892 15.352027 14.054902 -5.124784 -5.472084 -0.163216 82.309250 9.692164 -11.273941 19.888340 -5.651645 -10.278736 
28.304211 5.972748 0.000000 93.539154 -0.016851 -0.255340 -16.609047 -2.198715 0.252049 -25.431334 -0.002798 -0.449295 -4.808945 0.338763 -17.826925 0.085713 17.141422 -1.419465 -0.001347 -8.002656 -0.194655 -38.597115 -58.467793 -3.713815 -74.496941 12.086859 27.950140 10.834657 1.483234 20.565914 -0.002182 7.999156 -0.194408 38.588985 58.463844 -3.719616 81.531433 -26.215797 47.072311 17.559326 -7.726072 -1.122315 -5.126451 4.947763 0.035899 90.260750 -12.288361 -4.341745 7.047892 15.352027 14.054902 -5.124784 -5.472084 -0.163216 82.331085 9.770564 -11.277565 19.888340 -5.651645 -10.278736 
